<svg width="446" height="381" viewBox="0 0 446 381" fill="none" xmlns="http://www.w3.org/2000/svg">
<g clip-path="url(#clip0_968_3632)">
<path d="M377.454 268.447H0V0H377.454V268.447Z" fill="white"/>
<path d="M30.7468 110.256C29.7714 110.256 28.836 110.644 28.1462 111.335C27.4565 112.025 27.0691 112.962 27.0691 113.938C27.0691 114.915 27.4565 115.851 28.1462 116.542C28.836 117.233 29.7714 117.62 30.7468 117.62H158.214C159.188 117.619 160.122 117.23 160.81 116.54C161.498 115.849 161.885 114.914 161.885 113.938C161.885 112.963 161.498 112.027 160.81 111.337C160.122 110.647 159.188 110.258 158.214 110.256H30.7468Z" fill="#47A138"/>
<path d="M30.7468 132.349C29.7714 132.347 28.8352 132.733 28.144 133.422C27.4528 134.111 27.0634 135.047 27.0613 136.024C27.0593 137 27.4448 137.937 28.133 138.629C28.8213 139.321 29.7559 139.711 30.7313 139.713H158.308C159.284 139.713 160.219 139.326 160.909 138.635C161.598 137.944 161.986 137.008 161.986 136.031C161.986 135.055 161.598 134.118 160.909 133.428C160.219 132.737 159.284 132.349 158.308 132.349H30.7468Z" fill="#47A138"/>
<path d="M30.7468 154.126C29.7714 154.124 28.8352 154.51 28.144 155.199C27.4528 155.888 27.0634 156.824 27.0613 157.801C27.0593 158.777 27.4448 159.715 28.133 160.407C28.8213 161.099 29.7559 161.489 30.7313 161.491H59.4399C60.4153 161.491 61.3507 161.103 62.0404 160.412C62.7301 159.722 63.1176 158.785 63.1176 157.808C63.1176 156.832 62.7301 155.895 62.0404 155.205C61.3507 154.514 60.4153 154.126 59.4399 154.126H30.7468Z" fill="#47A138"/>
<path d="M377.454 268.447H0V0H377.454V268.447ZM6.20473 262.235H371.249V6.21219H6.20473V262.235Z" fill="#E5E5E5"/>
<path d="M258.687 209.461C256.933 209.459 255.25 210.153 254.008 211.393C252.766 212.632 252.066 214.315 252.062 216.07C252.059 217.826 252.751 219.512 253.988 220.756C255.225 222.001 256.905 222.703 258.659 222.708H321.828C322.697 222.709 323.558 222.538 324.361 222.206C325.165 221.873 325.895 221.385 326.51 220.77C327.125 220.155 327.613 219.425 327.946 218.621C328.278 217.817 328.45 216.955 328.45 216.084C328.45 215.214 328.278 214.352 327.946 213.548C327.613 212.744 327.125 212.014 326.51 211.399C325.895 210.783 325.165 210.296 324.361 209.963C323.558 209.631 322.697 209.46 321.828 209.461H258.687Z" fill="#E4E4E4"/>
<path d="M258.687 129.25C256.933 129.247 255.25 129.942 254.008 131.182C252.766 132.421 252.066 134.103 252.062 135.859C252.059 137.615 252.751 139.301 253.988 140.545C255.225 141.79 256.905 142.492 258.659 142.497H321.828C322.697 142.498 323.558 142.327 324.361 141.994C325.165 141.662 325.895 141.174 326.51 140.559C327.125 139.944 327.613 139.214 327.946 138.409C328.278 137.605 328.45 136.744 328.45 135.873C328.45 135.003 328.278 134.141 327.946 133.337C327.613 132.533 327.125 131.803 326.51 131.187C325.895 130.572 325.165 130.085 324.361 129.752C323.558 129.42 322.697 129.249 321.828 129.25H258.687Z" fill="#E4E4E4"/>
<path d="M30.7468 212.529C30.2639 212.528 29.7854 212.622 29.3388 212.806C28.8922 212.99 28.4862 213.26 28.144 213.602C27.8018 213.943 27.53 214.348 27.3442 214.794C27.1585 215.241 27.0623 215.719 27.0613 216.203C27.0603 216.687 27.1544 217.166 27.3383 217.613C27.5222 218.06 27.7922 218.466 28.133 218.809C28.4738 219.152 28.8787 219.424 29.3245 219.61C29.7703 219.796 30.2484 219.892 30.7313 219.893H158.308C159.284 219.893 160.219 219.505 160.909 218.814C161.598 218.124 161.986 217.187 161.986 216.211C161.986 215.234 161.598 214.298 160.909 213.607C160.219 212.917 159.284 212.529 158.308 212.529H30.7468Z" fill="#E4E4E4"/>
<path d="M30.7468 234.306C30.2639 234.305 29.7854 234.399 29.3388 234.583C28.8922 234.767 28.4862 235.038 28.144 235.379C27.8018 235.72 27.53 236.125 27.3443 236.572C27.1585 237.018 27.0623 237.497 27.0613 237.98C27.0603 238.464 27.1544 238.943 27.3383 239.39C27.5222 239.837 27.7922 240.244 28.133 240.586C28.4738 240.929 28.8787 241.201 29.3245 241.387C29.7703 241.573 30.2484 241.669 30.7313 241.67H59.4399C60.4153 241.67 61.3507 241.282 62.0404 240.592C62.7301 239.901 63.1176 238.965 63.1176 237.988C63.1176 237.012 62.7301 236.075 62.0404 235.384C61.3507 234.694 60.4153 234.306 59.4399 234.306H30.7468Z" fill="#E4E4E4"/>
<path d="M30.7468 190.436C29.7714 190.436 28.836 190.823 28.1462 191.514C27.4565 192.205 27.0691 193.141 27.0691 194.118C27.0691 195.094 27.4565 196.031 28.1462 196.721C28.836 197.412 29.7714 197.8 30.7468 197.8H158.214C159.188 197.798 160.122 197.409 160.81 196.719C161.498 196.029 161.885 195.093 161.885 194.118C161.885 193.142 161.498 192.207 160.81 191.516C160.122 190.826 159.188 190.437 158.214 190.436H30.7468Z" fill="#E4E4E4"/>
<path d="M30.7468 30.0764C29.7714 30.0764 28.836 30.4644 28.1462 31.1549C27.4565 31.8455 27.0691 32.782 27.0691 33.7586C27.0691 34.7352 27.4565 35.6717 28.1462 36.3623C28.836 37.0528 29.7714 37.4408 30.7468 37.4408H158.214C159.188 37.4389 160.122 37.0502 160.81 36.3598C161.498 35.6695 161.885 34.734 161.885 33.7586C161.885 32.7832 161.498 31.8477 160.81 31.1574C160.122 30.467 159.188 30.0783 158.214 30.0764H30.7468Z" fill="#E4E4E4"/>
<path d="M30.7468 52.1694C30.2639 52.1684 29.7854 52.2627 29.3388 52.4468C28.8922 52.6309 28.4862 52.9012 28.144 53.2424C27.8018 53.5836 27.53 53.989 27.3442 54.4353C27.1585 54.8817 27.0623 55.3603 27.0613 55.8439C27.0603 56.3274 27.1544 56.8064 27.3383 57.2536C27.5222 57.7007 27.7922 58.1072 28.133 58.4498C28.4738 58.7925 28.8787 59.0646 29.3245 59.2505C29.7703 59.4365 30.2484 59.5328 30.7313 59.5338H158.308C158.791 59.5338 159.269 59.4386 159.716 59.2535C160.162 59.0685 160.567 58.7972 160.909 58.4553C161.25 58.1134 161.521 57.7075 161.706 57.2607C161.891 56.814 161.986 56.3352 161.986 55.8516C161.986 55.3681 161.891 54.8893 161.706 54.4425C161.521 53.9958 161.25 53.5898 160.909 53.2479C160.567 52.906 160.162 52.6348 159.716 52.4497C159.269 52.2647 158.791 52.1694 158.308 52.1694H30.7468Z" fill="#E4E4E4"/>
<path d="M30.7468 73.9468C29.7714 73.9447 28.8352 74.3307 28.144 75.0198C27.4528 75.7089 27.0634 76.6446 27.0613 77.6212C27.0593 78.5978 27.4448 79.5352 28.133 80.2271C28.8213 80.9191 29.7559 81.3091 30.7313 81.3111H59.4399C60.4153 81.3111 61.3507 80.9232 62.0404 80.2326C62.7301 79.5421 63.1176 78.6055 63.1176 77.629C63.1176 76.6524 62.7301 75.7158 62.0404 75.0253C61.3507 74.3347 60.4153 73.9468 59.4399 73.9468H30.7468Z" fill="#E4E4E4"/>
<path d="M258.687 49.1016C256.933 49.0991 255.25 49.794 254.008 51.0334C252.766 52.2728 252.066 53.9553 252.062 55.7111C252.059 57.4669 252.751 59.1524 253.988 60.397C255.225 61.6416 256.905 62.3436 258.659 62.3485H321.828C322.697 62.3494 323.558 62.1787 324.361 61.8463C325.165 61.5138 325.895 61.026 326.51 60.4109C327.125 59.7958 327.613 59.0653 327.946 58.2613C328.278 57.4573 328.45 56.5954 328.45 55.7251C328.45 54.8547 328.278 53.9929 327.946 53.1888C327.613 52.3848 327.125 51.6543 326.51 51.0392C325.895 50.4241 325.165 49.9363 324.361 49.6038C323.558 49.2714 322.697 49.1007 321.828 49.1016H258.687Z" fill="#E4E4E4"/>
<path d="M271.995 67.5408C278.547 67.5408 283.859 62.2227 283.859 55.6624C283.859 49.1021 278.547 43.7839 271.995 43.7839C265.442 43.7839 260.13 49.1021 260.13 55.6624C260.13 62.2227 265.442 67.5408 271.995 67.5408Z" fill="#CACACA"/>
<path d="M293.226 138.814L293.226 138.811C293.421 137.325 294.154 135.963 295.285 134.982C296.416 134.001 297.867 133.47 299.363 133.489C300.859 133.508 302.297 134.076 303.403 135.085C304.509 136.094 305.207 137.474 305.364 138.964L305.374 139.049L305.411 139.127L314.3 157.711L306.094 159.32L299.958 146.016L299.818 145.713L299.484 145.726C298.597 145.761 297.712 145.601 296.893 145.256C296.074 144.912 295.341 144.392 294.744 143.733C294.147 143.074 293.702 142.292 293.44 141.442C293.177 140.592 293.104 139.695 293.226 138.814ZM292.731 138.746L292.731 138.746L292.731 138.746Z" stroke="black"/>
<path d="M356.554 190.441L330.849 177.71L312.71 146.888L300.031 153.028L316.485 188.635L358.052 212.659L356.554 190.441Z" fill="#3F3D56"/>
<path d="M298.022 349.824L298.021 372.151L290.864 372.15L287.184 349.824L298.022 349.824Z" stroke="black"/>
<path d="M300.581 380.493L274.526 380.492V380.162C274.526 377.47 275.595 374.887 277.497 372.983C279.398 371.079 281.978 370.009 284.667 370.009H284.668L300.582 370.009L300.581 380.493Z" fill="#2F2E41"/>
<path d="M373.48 362.955L354.938 350.017L362.5 342.244L378.474 357.822L373.48 362.955Z" stroke="black"/>
<path d="M386.23 361.806L368.05 380.493L367.814 380.263C365.887 378.384 364.785 375.816 364.75 373.123C364.714 370.431 365.748 367.834 367.625 365.905L378.729 354.491L386.23 361.806Z" fill="#2F2E41"/>
<path d="M308.511 233.825H302.922C288.393 249.721 277.302 268.452 270.346 288.842L263.67 308.415L287.466 358.298L302.314 358.563L285.343 305.604L302.441 282.902L303.303 328.537L358.334 357.417L369.348 341.127L324.568 316.611L332.194 277.795C332.194 277.795 347.537 264.985 338.602 244.957L308.511 233.825Z" fill="#2F2E41"/>
<path d="M382.068 183.026L358.843 172.842L333.281 184.183C333.281 184.183 326.043 188.305 330.656 198.864L302.922 233.825C302.922 233.825 302.973 233.839 337.829 244.958L369.276 217.23C374.051 213.02 377.717 207.697 379.948 201.731C382.179 195.765 382.907 189.341 382.068 183.026Z" fill="#3F3D56"/>
<path d="M378.17 172.541C387.111 172.541 394.359 165.284 394.359 156.333C394.359 147.381 387.111 140.125 378.17 140.125C369.229 140.125 361.981 147.381 361.981 156.333C361.981 165.284 369.229 172.541 378.17 172.541Z" fill="#47A138"/>
<path d="M399.136 134.824C395.42 131.798 389.658 131.137 385.822 134.009C379.133 130.494 370.093 132.327 365.297 138.172C363.571 140.275 362.349 143.121 363.203 145.705C364.057 148.289 367.739 149.808 369.658 147.88L369.624 148.675C371.353 150.408 372.551 152.599 373.079 154.991C373.606 157.383 373.441 159.876 372.602 162.177C371.763 164.478 370.285 166.492 368.342 167.981C366.4 169.47 364.073 170.372 361.635 170.583C366.94 172.728 372.245 174.874 377.55 177.019C379.782 177.922 382.085 178.839 384.492 178.827C386.9 178.815 389.466 177.644 390.4 175.422C391.071 177.484 391.743 179.545 392.415 181.606C396.369 175.308 399.621 168.594 402.114 161.586C403.72 157.069 405.018 152.344 404.845 147.552C404.671 142.76 402.851 137.85 399.136 134.824Z" fill="#2F2E41"/>
<path d="M271.995 227.9C278.547 227.9 283.859 222.582 283.859 216.022C283.859 209.461 278.547 204.143 271.995 204.143C265.442 204.143 260.13 209.461 260.13 216.022C260.13 222.582 265.442 227.9 271.995 227.9Z" fill="#CACACA"/>
<path d="M308.905 147.752C315.458 147.752 320.77 142.434 320.77 135.873C320.77 129.313 315.458 123.995 308.905 123.995C302.353 123.995 297.041 129.313 297.041 135.873C297.041 142.434 302.353 147.752 308.905 147.752Z" fill="#47A138"/>
<path d="M309.704 132.215L309.704 132.212C309.9 130.726 310.632 129.364 311.763 128.383C312.894 127.402 314.345 126.871 315.841 126.89C317.337 126.909 318.775 127.476 319.881 128.485C320.987 129.494 321.685 130.875 321.843 132.365L321.852 132.45L321.889 132.528L330.778 151.112L322.572 152.721L316.436 139.417L316.296 139.114L315.962 139.127C315.075 139.162 314.19 139.001 313.371 138.657C312.552 138.313 311.819 137.793 311.222 137.134C310.625 136.475 310.18 135.693 309.918 134.843C309.655 133.993 309.583 133.096 309.704 132.215ZM309.209 132.147L309.209 132.147L309.209 132.147Z" stroke="black"/>
<path d="M373.032 183.842L347.327 171.111L329.188 140.289L316.509 146.429L332.963 182.036L374.53 206.06L373.032 183.842Z" fill="#3F3D56"/>
<path d="M433.368 381H182.242C182.068 381 181.9 380.93 181.776 380.807C181.653 380.683 181.583 380.515 181.583 380.34C181.583 380.165 181.653 379.997 181.776 379.873C181.9 379.75 182.068 379.68 182.242 379.68H433.368C433.543 379.68 433.71 379.75 433.834 379.873C433.957 379.997 434.027 380.165 434.027 380.34C434.027 380.515 433.957 380.683 433.834 380.807C433.71 380.93 433.543 381 433.368 381Z" fill="#CACACA"/>
</g>
<defs>
<clipPath id="clip0_968_3632">
<rect width="446" height="381" fill="white"/>
</clipPath>
</defs>
</svg>
